<?xml version="1.0" encoding="utf-8"?>
<!-- Generator: Adobe Illustrator 28.0.0, SVG Export Plug-In . SVG Version: 6.00 Build 0)  -->
<svg version="1.1" id="Layer_1" xmlns="http://www.w3.org/2000/svg" xmlns:xlink="http://www.w3.org/1999/xlink" x="0px" y="0px"
	 viewBox="0 0 426.9 368.9" style="enable-background:new 0 0 426.9 368.9;" xml:space="preserve">
<style type="text/css">
	.st0{fill:#FFFFFF;}
	.st1{fill-rule:evenodd;clip-rule:evenodd;fill:#FFFFFF;}
	.st2{fill:#FF6600;}
</style>
<g>
	<path class="st0" d="M213.5,0c39.6,0,76.3,12.5,106.3,33.7l42.6-2.8l-34,9.3l0.1,0l-3.5,0.9c-6.4,1.7-12.9,3.5-19.3,5.2
		c-26.4-17.6-58.1-27.9-92.2-27.9c-45.8,0-87.4,18.6-117.4,48.6c-10.9,10.9-20.2,23.2-27.7,36.7H47.5C56.5,85.3,68.6,68.5,83,54
		C116.4,20.6,162.5,0,213.5,0L213.5,0z M355.4,66.6l-45.3,15.9l31.4-3.9c6.5,7.8,12.2,16.2,17.2,25.1h20.8
		C372.9,90.4,364.8,77.9,355.4,66.6L355.4,66.6z M339.7,319c-33,31-77.4,50-126.2,50c-48.8,0-93.2-19-126.2-50h28.9
		c27.3,19.8,61,31.5,97.3,31.5c36.4,0,70-11.7,97.3-31.5H339.7L339.7,319z"/>
	<g>
		<path class="st0" d="M335.3,51c-1.8,0.5-2.9,2.4-2.5,4.4c0.4,2,2.2,3.2,4,2.8c1.8-0.5,2.9-2.4,2.5-4.4
			C338.8,51.7,337.1,50.5,335.3,51z"/>
		<path class="st0" d="M300.5,59.9c-1.8,0.5-2.9,2.4-2.5,4.4c0.4,2,2.2,3.2,4,2.8c1.8-0.5,2.9-2.4,2.5-4.4
			C304.1,60.7,302.3,59.5,300.5,59.9z"/>
		<path class="st0" d="M131,92.6c-2.4,0.6-4,3.3-3.4,6c0.6,2.7,3,4.4,5.5,3.8c2.4-0.6,4-3.3,3.4-6C135.9,93.6,133.5,91.9,131,92.6z"
			/>
		<path class="st0" d="M273,67.6c-8,12.5-1.9,49.2,5.6,62.6C278.6,130.1,265.8,88.7,273,67.6z"/>
		<path class="st0" d="M370,42c-1.8,0.5-2.9,2.4-2.5,4.4c0.4,2,2.2,3.2,4,2.8c1.8-0.5,2.9-2.4,2.5-4.4C373.6,42.8,371.8,41.5,370,42
			z"/>
		<path class="st0" d="M266.1,139.7c0.7-9.3-0.8-11.3-1.2-13.1c0.6,4.2,0.9,7.6-0.1,14.1L266.1,139.7z"/>
		<path class="st0" d="M277.9,84.8c0.6-6.8,2-5.7,4.7-6.9l-4-19l-0.3,0.1c-61.7,18.7-131.6,23.2-145.2,24.4
			c-21.6,1.8-10.5,43.8-10,59.3l-83.6,9.4h118.6v-4.7c0.1-2.9,0.6-6.2-0.7-7.9c-4.8-6.1-1.8-3.3-7.1-4.4c-1.7-0.4-2.1-0.1-3.5-0.4
			l-5-2.7c-1.1-4.5,2-5.4,2.7-8.2c0.4-1.8,0.3-7.3,0.6-10c-2.6-0.2-5-0.5-6.9-1.9c-1.5-1.2-2.8-3.1-2.7-5.4c1.4-1.4,3.2-2.2,6-1.5
			c2.2,0.6,3.5,2,5.4,2.8c-0.3-2.3-0.7-1.7-2.4-2.8c-3.3-2.2-5.9-8.5-2.5-9.3c1.1,1.4-0.3,6.1,5.9,6.9c2.3-1.6,3.2-1.8,6.6-1.7
			c2,0,5.7,0.4,7.6,1.2c1.6,0.7,2.2,3.4,6.5,2.3c2.6-0.7,2-3.5,3.4-5.4c1.3,0.2,1.5,0.3,1.4,2c0,0.7-0.3,2.1-0.6,2.8
			c-0.8,2-2,3-3.3,3.6c1,1,2.7,1.3,4.1,1.7c4.3,1.2,6.6,1.2,10.9,1.7c21.1,2.7,28.8,8.8,51.2,4.2c7.5-1.6,15.3-3.9,22.2,2
			c1.6,1.4,1.9,2.4,4.3,3.1c2.1,0.6,3.6,1.2,5,2.6c2.6,2.5,2.9,5.9,2.2,10.9c-0.2,1.5-0.5,3.3-0.8,5.3c0,0-0.7,10.9-4.3,13.3h102.1
			c-15.7-2.8-74.5-11.4-79.9-12.6C279.8,121.5,277.3,91.6,277.9,84.8z M133.1,102.4c-2.4,0.6-4.9-1.1-5.5-3.8
			c-0.6-2.7,0.9-5.4,3.4-6c2.4-0.6,4.9,1.1,5.5,3.8C137,99,135.5,101.7,133.1,102.4z M273,67.6c-7.2,21,5.6,62.5,5.6,62.6
			C271.1,116.8,265,80.2,273,67.6z"/>
		<path class="st0" d="M375.4,33.1c-4.6,0.8-76.5,20.3-94.4,25.2l4,18.9c5-0.9,9.1-0.8,21.8-1.5c12.7-0.7,49.7-14.9,53.2-16.1
			c3.5-1.2,9.9-1.4,11.5,2c1.5,3.4,3.4,2.6,3.4,2.6c9.4-4.4,11.6-10.9,11.6-10.9C390.6,37.6,380,32.3,375.4,33.1z M302.1,67.1
			c-1.8,0.5-3.6-0.8-4-2.8c-0.4-2,0.7-4,2.5-4.4c1.8-0.5,3.6,0.8,4,2.8C305,64.7,303.8,66.7,302.1,67.1z M336.8,58.2
			c-1.8,0.5-3.6-0.8-4-2.8c-0.4-2,0.7-4,2.5-4.4c1.8-0.5,3.6,0.8,4,2.8C339.7,55.7,338.6,57.7,336.8,58.2z M371.5,49.2
			c-1.8,0.5-3.6-0.8-4-2.8c-0.4-2,0.7-4,2.5-4.4c1.8-0.5,3.6,0.8,4,2.8C374.4,46.7,373.3,48.7,371.5,49.2z"/>
	</g>
	<polygon class="st1" points="0,263.6 426.9,263.6 426.9,268.8 0,268.8 0,263.6 	"/>
</g>
<g>
	<path class="st2" d="M26.4,224.9l8.5-56h17.3v78.9H40.4v-56.6l-8.6,56.6H20.1l-9.2-55.8v55.8H0v-78.9h17.3L26.4,224.9z"/>
	<path class="st2" d="M70.7,202.1h17v11.3h-17v23.1h21.4v11.3H58.3v-78.9h33.8v11.3H70.7V202.1z"/>
	<path class="st2" d="M137.1,247.8h-12.5l-2.1-14.3h-15.2l-2.1,14.3H93.7l12.6-78.9h18.2L137.1,247.8z M108.8,222.7h12l-6-39.9
		L108.8,222.7z"/>
	<path class="st2" d="M136.4,168.8h38.3v11.3h-13v67.7h-12.4v-67.7h-13V168.8z"/>
	<path class="st2" d="M200.7,206c-5.9-2.5-8.6-7.8-8.6-16.2v-1.5c0-12.6,6.1-19.5,18.5-19.5h14.2v11.3h-14c-3.9,0-6.3,2-6.3,7.7v4.8
		c0,6.3,2.8,8.3,7.4,8.3h5.4v-8.8h12.4v8.8h3.3v11.3h-3.3v25.9c0,3.8,0.1,6.7,1.4,9.6h-12.6c-0.6-1.6-0.9-2.7-1.1-6.2
		c-2.1,4.6-6,7.1-11.5,7.1c-9.1,0-13.8-6.4-13.8-18v-8C192.1,214.6,194.6,208.7,200.7,206z M211,237.4c3.7,0,6.2-1.9,6.4-6.9v-18.3
		h-4.7c-5.6,0-8.1,2.7-8.1,10v7.3C204.5,235.2,207,237.4,211,237.4z"/>
	<path class="st2" d="M276.8,224.9l8.5-56h17.3v78.9h-11.7v-56.6l-8.6,56.6h-11.7l-9.2-55.8v55.8h-10.8v-78.9h17.3L276.8,224.9z"/>
	<path class="st2" d="M307.7,187.8c0-12.6,6.7-19.8,18.8-19.8c12.2,0,18.8,7.2,18.8,19.8v41c0,12.6-6.7,19.8-18.8,19.8
		c-12.2,0-18.8-7.2-18.8-19.8V187.8z M320.1,229.6c0,5.6,2.5,7.8,6.4,7.8c3.9,0,6.4-2.1,6.4-7.8V187c0-5.6-2.5-7.8-6.4-7.8
		c-3.9,0-6.4,2.1-6.4,7.8V229.6z"/>
	<path class="st2" d="M376.5,247.8c-0.7-2-1.1-3.3-1.1-9.7v-12.4c0-7.3-2.5-10-8.1-10H363v32.1h-12.4v-78.9h18.7
		c12.9,0,18.4,6,18.4,18.2v6.2c0,8.1-2.6,13.4-8.1,16c6.2,2.6,8.2,8.6,8.2,16.8v12.2c0,3.8,0.1,6.7,1.4,9.6H376.5z M363,180.1v24.2
		h4.8c4.6,0,7.4-2,7.4-8.3v-7.8c0-5.6-1.9-8.1-6.3-8.1H363z"/>
	<path class="st2" d="M405.5,202.1h17v11.3h-17v23.1h21.4v11.3h-33.8v-78.9h33.8v11.3h-21.4V202.1z"/>
</g>
<g>
	<rect x="132" y="278.4" class="st0" width="4.8" height="4.2"/>
	<rect x="139.5" y="278.4" class="st0" width="4.8" height="4.2"/>
	<path class="st0" d="M189.3,290.7c-1.5-1.3-3.7-2-6.6-2h-6l10.2-10.2h-5.6l-9.3,10.2l1.8,4h8.2c1.7,0,2.9,0.3,3.8,0.9
		c0.9,0.6,1.3,1.7,1.3,3.1c0,0.8-0.2,1.9-0.6,3.1h-45c-1.3,0-2.2-0.1-2.8-0.3c-0.6-0.2-1.2-0.5-1.7-1.1c0.1-0.6,0.2-1.2,0.2-1.7
		v-9.7h-4.6v8.9c0,1.1-0.3,2.1-0.9,2.8c-0.6,0.7-1.4,1-2.3,1h-33c-1.5,0-2.6-0.5-3.3-1.4v-11h-4.6v15.5c0,1.1-0.2,1.9-0.5,2.5
		c-0.3,0.6-0.8,1-1.4,1.3c-0.6,0.3-1.5,0.5-2.5,0.6l1.8,4.1c2.1-0.2,3.8-1,5.2-2.4c1.3-1.4,2-3.5,2-6.3v0c1.1,0.7,2.3,1,3.3,1
		c0,0,0,0,0,0h34.4c1.1,0,2-0.2,2.9-0.7c0.9-0.4,1.6-1.1,2.2-1.8c0.7,0.9,1.5,1.6,2.4,1.9c0.6,0.3,1.4,0.4,2.3,0.5
		c0,0,0.1,0.1,0.2,0.1h49.1c0.5-1,0.9-2.1,1.3-3.5c0.4-1.4,0.6-2.7,0.6-3.8C191.5,293.9,190.8,292,189.3,290.7z"/>
	<rect x="196.1" y="283.4" class="st0" width="4.6" height="20.3"/>
	<path class="st0" d="M198.3,279.2c0-0.2,0.1-0.3,0.2-0.4c0.1-0.1,0.3-0.2,0.5-0.2c0.4,0,0.9,0.1,1.5,0.3l0.5-2.1
		c-0.9-0.3-1.7-0.5-2.2-0.5c-0.8,0-1.4,0.2-1.8,0.7c-0.4,0.5-0.6,1-0.6,1.7c0,0.4,0.1,0.8,0.3,1.2h-1.2l-0.6,2.1h6.6v-2.1h-2.8
		C198.4,279.8,198.3,279.5,198.3,279.2z"/>
	<path class="st0" d="M211.1,288.2c-1.4,0.7-2.4,1.7-3.2,3c-0.7,1.3-1.1,2.7-1.1,4.3c0,1.7,0.3,3.1,1,4.4c0.7,1.3,1.7,2.2,2.9,2.9
		c1.2,0.7,2.6,1,4.1,1h0.5l1.8-4h-1.5c-1.3,0-2.3-0.4-3-1.1c-0.7-0.8-1-1.8-1-3.1c0-3,1.3-4.5,4-4.5c0.6,0,1.3,0.1,2.1,0.2v11.4
		c0,1.1-0.2,1.9-0.6,2.6c-0.4,0.6-1,1.1-1.8,1.4c-0.8,0.3-1.9,0.6-3.3,0.7l1.8,4.1c1.8-0.3,3.3-0.7,4.5-1.3c1.2-0.6,2.2-1.5,2.9-2.8
		c0.7-1.2,1.1-2.9,1.1-4.9v-14.8c-2.9-0.4-5.1-0.7-6.6-0.7C214.1,287.1,212.5,287.4,211.1,288.2z"/>
	<path class="st0" d="M335.1,278.5v21.3h-32.5c-0.7,0-1.5-0.2-2.2-0.7c-0.7-0.4-1.2-1-1.5-1.8l-1.8-4.6c-0.7-1.8-1.8-3.2-3.4-4.2
		c-1.6-1-3.4-1.5-5.5-1.5c-2.2,0-4.3,0.5-6.2,1.5l1.7,3.8c1.1-0.5,2.4-0.8,3.8-0.8c1.3,0,2.3,0.3,3.2,0.9c0.9,0.6,1.6,1.4,2,2.5
		l1.5,3.7c-1.3,0.5-2.6,0.8-4,1c-1.3,0.2-2.8,0.2-4.5,0.2H250c0,0,0,0,0,0s0,0,0,0c-1.3,0-2.3-0.3-3-1c0.4-1,0.6-2.1,0.6-3.4
		c0-1.6-0.4-3-1.1-4.3c-0.7-1.3-1.8-2.3-3.2-3c-1.4-0.7-2.9-1.1-4.7-1.1c-1.5,0-3.7,0.2-6.6,0.7v12.5c-1.3,0.5-2.3,1.3-3.1,2.5
		c-0.8,1.2-1.1,2.6-1.1,4.1v4.7h4.6v-3.9c0-1.2,0.3-2.1,0.9-2.8c0.6-0.7,1.4-1,2.2-1h3.9c2.2,0,4.1-0.7,5.6-2.2
		c0.7,0.7,1.5,1.3,2.3,1.6c0.9,0.4,1.7,0.5,2.4,0.5c0,0,0,0,0,0s0,0,0,0h35.9c1.7,0,3.4-0.2,5.2-0.6c1.8-0.4,3.4-1,4.8-1.8
		c1.3,1.4,3.2,2.2,5.7,2.3c0,0,0.1,0,0.2,0h37.9v-25.3H335.1z M241.8,298.7c-0.7,0.8-1.7,1.1-3,1.1h-2.1v-8.5
		c0.7-0.2,1.4-0.2,2.1-0.2c2.7,0,4,1.5,4,4.5C242.8,296.9,242.5,297.9,241.8,298.7z"/>
	<rect x="124.5" y="278.4" class="st0" width="4.8" height="4.2"/>
</g>
</svg>
